<svg id="xeho91-avatar" xmlns="http://www.w3.org/2000/svg" viewBox="0 0 1024 1024"><style>:root{--color-accent:#e18e4a;--color-background:#2c042e;--shadow-opacity:0.75}</style><g id="avatar_background"><circle class="frame" cx="512" cy="512" r="512" fill="var(--color-accent)"/><circle class="background" cx="512" cy="512" r="472" fill="var(--color-background)" filter="url(#shadow_background)"/><filter id="shadow_background"><feDropShadow dx="0" dy="0" stdDeviation="10" flood-color="var(--color-background)" flood-opacity="var(--shadow-opacity)"/></filter></g><g id="avatar_logomark" fill="var(--color-accent)" filter="url(#shadow_logomark)"><path id="x-forward" d="M691.56 616.74l-3.325-13.3c-16.626-5.542-25.493-9.975-25.493-17.734l-6.65 3.325c0-5.542-6.65-11.084-17.734-18.842-18.842 0-39.901-22.167-63.177-66.502-1.109-2.217-3.325-3.325-3.325-5.542-3.326-4.433-6.65-9.975-8.867-15.517v-1.108l-6.65-19.951s-1.109 0-1.109-1.109l-4.434-4.433s0-2.217-1.108-2.217h-4.433v1.109c0-2.217-1.109-3.325-3.326-4.434-4.433-5.542-8.867-12.192-9.975-18.842-3.325-3.325-5.542-7.758-7.758-11.084-2.217-5.542-5.542-12.192-6.65-18.842 0-1.108 0-2.217-1.109-2.217-1.108-2.216-2.217-3.325-2.217-4.433h-1.108v-3.325c0-2.217-1.108-3.325-3.325-5.542-5.542-4.434-9.976-11.084-13.3-16.626-1.109-1.109-2.217-2.217-3.325-2.217h-1.109s-2.216-1.108-2.216-2.217c-1.109-1.108-1.109-2.216 0-3.325-1.109-1.108 0-2.217 0-3.325v-1.108c0-3.325-2.217-5.542-4.434-7.759l-2.217-2.217c-1.108 0-2.216-1.108-2.216-2.216-1.109-1.109-1.109-1.109-1.109-2.217-15.517-22.167-33.25-38.793-52.093-46.552l-7.758 3.325-2.217-11.084c-39.901-11.084-59.852-19.951-59.852-25.493-4.434 0-6.65 2.217-6.65 5.542-4.434 0-6.65-2.217-7.759-5.542l-13.3 16.626c3.325 26.6 14.41 56.527 35.468 89.778v3.325l-4.433 6.65c7.758 0 9.975 2.217 9.975 5.542l-4.434 6.65c5.542 0 12.192 12.192 19.951 36.576 3.326 3.325 5.542 7.759 7.759 9.976 1.108 3.325 3.325 6.65 4.434 9.975 2.216 0 2.216 2.217 2.216 3.325v1.109c1.109 5.541 5.542 12.192 8.867 17.734 1.109 0 2.217-5.542 3.325 3.325h1.109s2.217 8.867 6.65 17.734v-1.109h1.108c2.217 14.41 14.41 25.493 23.276 37.685 9.976 11.084 18.842 23.276 29.926 33.251 0 0 1.109 0 1.109 1.109v-2.217c1.108 0 1.108-1.108 1.108-1.108h3.325l6.65 4.433 1.109 1.109c2.217 1.108 4.433 3.325 5.542 3.325h9.975s0 5.542 9.976 5.542v4.433l-5.542 6.65c2.216 0 3.325 1.109 3.325 3.325 2.217 0 2.217-3.325 2.217-3.325 9.975 0 18.842 4.434 31.034 14.41h3.325l6.65-1.11c0 5.543 2.217 11.085 7.758 17.735 5.542 0 9.976-3.325 13.3-4.434 5.542 0 7.759 7.759 7.759 7.759h9.975l-3.325-3.325c21.06 2.217 43.226 8.867 66.502 19.95l6.65-2.216c0 2.217 1.109 4.434 3.326 4.434h26.6v-8.867l-5.541-12.192z"/><path id="x-back" d="M396.18 454.92v8.867c0 6.65-4.434 11.084-7.759 11.084-3.325 14.409-13.3 21.059-13.3 21.059v17.734h3.326c16.626-28.818 31.034-42.118 34.36-42.118 0 0-8.867-5.542-9.976-9.975-1.108-3.325-11.084-22.167-12.192-24.384l-2.217-3.325-4.433 13.3c2.217 3.325 3.325 9.975 3.325 11.084zm-13.3-1.108h-7.759v6.65c4.434 0 7.759-3.325 7.759-6.65zm-35.468 67.61h3.325c7.759-28.817 13.3-35.467 24.384-35.467v-2.217s-4.433-2.217-9.975-5.542c-9.976 4.433-9.976 9.975-9.976 12.192v5.542l-1.108 8.867-2.217-1.109-2.217 6.65-4.433-1.108v3.325c-1.108 4.434-2.217 9.976 2.217 8.867zm0 32.144h3.325v-6.65h-3.325zm-24.384 6.65c0-6.65-2.217-9.976-7.759-9.976h-3.325v3.326l3.325 6.65c-2.216 0-3.325 1.108-3.325 3.325v9.975s7.759-5.542 11.084-13.3zm-11.084 41.01h6.65V597.9h-6.65zm63.177-41.01h-6.65v5.542h6.65zm-6.65-45.443h-3.325v5.542h3.325zm-32.143 3.325h-7.759v9.975h7.759zM297.535 597.9h4.433v-3.325c0-3.325-2.217-5.542-6.65-6.65h-4.433v3.325c0 4.433 2.216 6.65 6.65 6.65zm191.75-243.84v2.217c-1.109 1.108-1.109 2.216 0 3.325-1.109 1.108 0 2.217 0 3.325s2.216 2.217 2.216 2.217v-6.65s5.542-1.11 9.976-3.326c0-4.433-16.626-8.867-16.626-7.758 2.217 1.108 3.325 3.325 4.433 6.65zm75.369-113.05h-7.759v3.325h7.759zm152.96 70.936h6.65c5.542 0 7.759-2.217 7.759-5.542h-13.3v5.542zm-426.72 283.74h-3.325v5.542h3.325zm298.15-139.65h-3.325v5.542h3.325zm13.3-18.842v3.325c5.542 0 7.758-2.217 7.758-5.542v-3.325c-4.433-1.108-6.65 2.217-7.758 5.542zm-164.04 234.97l-4.434 3.325h4.434zm-4.434 2.217h-2.216v1.108zm213.92-294.83c0 3.325-2.216 7.758-6.65 12.192v3.325h6.65c0-6.65 2.217-9.976 7.759-9.976 0-3.325-2.217-5.541-7.759-5.541zm-62.069 96.428v3.325c9.976-2.217 9.976-11.084 21.06-28.818v-5.542h-1.11c-8.866 9.975-19.95 18.842-19.95 31.034zm-91.995 93.103c0 9.975-3.325 13.3-13.3 13.3v9.975c-9.975 22.167-18.842 35.468-21.059 35.468h-9.975l5.542 2.217c0 13.3-7.759 26.6-21.06 36.576h-6.65v-12.192s0 3.325-9.975 9.975v3.325l8.867-3.325c4.434 4.433 6.65 8.867 7.759 12.192h-1.109l3.326 18.842c-4.434 0-9.976 9.975-13.3 28.818h6.65v4.433c0 5.542-2.217 9.976-7.759 17.734 2.217 3.326 3.325 6.65 3.325 6.65h-9.975l-11.084 7.76 4.433 5.541c0 3.325-1.108 5.542-5.541 5.542l5.541 6.65v19.951h3.326l-4.434 4.434 3.325 14.409h-3.325l-6.65-2.217c0 4.434-3.325 9.975-13.3 9.975v3.325c-16.626 0-31.034-7.758-42.118-21.059v-1.108h2.217c-1.109 0-1.109-3.325-2.217-3.325v3.325s-9.976-5.542-21.06-16.626v3.325l3.326 3.325h-7.759c-3.325 0-7.758-3.325-12.192-11.084 2.217 0 4.434 0 4.434-2.217-3.325 0-9.975-3.325-9.975-9.975v-1.108c0-2.217-1.109-3.325 2.216-3.325-5.542-17.734-9.975-25.493-12.192-25.493 4.434-31.034 9.976-47.66 13.3-52.093l-3.325-15.517c4.434 0 7.759-2.217 9.975-5.542-2.216-4.434-4.433-7.759-4.433-9.975 2.217-6.65 4.433-9.976 6.65-9.976l-2.217-6.65v-3.325c9.976 0 29.926-23.276 48.768-70.936h4.434c5.542 0 7.758 9.975 7.758 9.975h3.326s4.433-9.975 13.3-18.842h-6.65c0-9.975 4.433-8.867 8.866-8.867 0 2.217-5.542 2.217 5.542 2.217v-3.325c-9.975-3.325-4.433-7.759-4.433-9.975l-6.65 3.325v-3.325c0-3.326 2.216-6.65 9.975-9.976 0 6.65 2.217 9.976 9.975 9.976 0 7.758-8.867 15.517-8.867 25.493v3.325l5.542 9.975c-15.517 0-31.034 17.734-44.335 50.985l7.759 3.325c0-3.325 4.433-12.192 13.3-23.276 0-13.3 3.325-21.059 9.975-21.059h7.759v3.325c1.108-5.542 3.325-9.975 9.975-15.517v-9.975c9.975 0 9.975-6.65 13.3-24.384 9.975 0 13.3-11.084 13.3-21.06h-6.65s-2.217 9.976-7.759 9.976h-3.325c-5.542 0-7.759-3.325-7.759-8.867l-13.3 4.434v-6.65c0-1.109 8.867-11.084 24.384-31.034v1.108c2.217 14.409 14.41 25.493 23.276 37.685 9.976 11.084 18.842 23.276 29.926 33.25h1.109v-1.107l1.108-1.109c0 9.975-7.758 18.842-21.059 38.793h7.759c11.084 0 16.626-9.975 16.626-18.842h2.217v-6.65l5.541-6.65-6.65-4.434 6.65 3.325h1.109c2.217 3.325 4.433 3.325 6.65 4.434zm-133 26.6h4.434c5.542 0 7.758-2.216 7.758-6.65h-9.975zM344.1 626.719h7.759s3.325-9.976 3.325-15.517v-3.326c0-4.433 0-6.65-5.542-6.65 0 7.759-5.542 14.41-5.542 18.842zm-21.059 43.226c9.976-2.217 13.3-8.867 13.3-18.842-4.433 0-3.325 3.325-13.3 12.192zm-3.325 8.867h7.759v-3.326h-7.759zm-9.975 13.3h3.325v-6.65h-3.325zm5.542 89.778h-3.325v6.65h3.325zm0-16.626h-3.325v6.65h3.325zm0-22.167l-5.542-3.326h-4.434v5.542c5.542 0 7.759 2.217 7.759 6.65h3.325v-8.866zm11.084-48.768v-12.192h-7.759l-3.325 12.192 7.759-3.326c0 3.326 1.108 3.326 3.325 3.326zm3.325 48.768h-3.325v6.65h3.325zm0-42.118h4.433v-5.542H330.8zm11.084 74.26h3.325v-9.975h-3.325zm0-12.191v-3.326c-2.217-3.325-3.325-7.758-3.325-9.975h-4.434v3.325c2.217 3.325 3.325 7.759 3.325 9.976zm0-35.468h-3.325v6.65h3.325zm-7.759 15.517h7.759v-5.542c-5.542 0-7.759 2.216-7.759 5.542zm11.084 62.069l-3.325-5.542h-7.758zm3.325-117.49h-3.325l-3.325 12.192h6.65zm17.734-49.877l-13.3-3.326c-11.084 33.251-17.734 53.202-17.734 58.744 3.325 0 9.976-9.975 17.734-32.143-2.216 0-3.325-1.108-3.325-3.325 2.217-1.108 6.65-7.758 16.626-19.95zm21.06-29.926h-3.326v6.65h3.325zm55.418-47.66h6.65v-6.65c-4.433 0-6.65 2.216-6.65 6.65zm-9.975-9.976h7.759v-3.325h-6.65zm-21.06 28.818h7.76v-5.542h-7.76zm-14.408 25.493h-3.325v6.65h3.325zm21.059 119.7h-3.325v5.542h3.325zm13.3-149.63l-6.65-4.433h-6.65v9.975h9.975c0 3.325-6.65 6.65-17.734 9.975l3.325 6.65c-1.108 14.41-6.65 22.167-16.626 22.167v6.65s6.65 3.326 6.65 12.193h4.434c0-9.976 2.216-14.41 7.758-31.034l6.65 2.217c0-2.217 0-3.326 3.326-3.326l-6.65-5.541v-5.542c9.975 1.108 12.191-7.759 12.191-19.951zm3.325-1.108h4.434c5.541 0 7.758-2.217 7.758-6.65l-13.3-3.326c0 4.434 1.109 6.65 1.109 9.976zm7.759 66.502h-7.759v5.542c5.542 1.108 7.759-1.109 7.759-5.542zm12.192-27.71c-7.759 0-12.192 4.434-15.517 24.385h3.325c4.433 0 6.65-3.325 6.65-9.976h1.108v-5.541c9.976-4.434 4.434-5.542 4.434-8.867zm141.87-162.93v-3.324h-7.759v9.975c5.542 0 7.759-1.108 7.759-6.65zm-66.502-111.95v-3.324h-3.325c-4.434 0-6.65 2.217-6.65 5.542v3.325h3.324c4.434 0 6.65-1.109 6.65-5.542zm213.92-67.61v3.325h19.95c0 9.975-7.758 8.867-24.383 11.084l4.433 8.867v3.325c-21.059 1.108-29.926 4.434-29.926 9.975l-8.867-3.325c-8.867 3.325-14.409 5.542-14.409 8.867h6.65l14.41-5.542v3.326l-4.434 2.216h4.433v9.976L701 325.23c-7.759 9.975-13.3 17.734-13.3 23.276l-7.759-3.325c1.109-8.867 9.976-12.192 9.976-12.192v-1.109h-3.325s-4.434 6.65-13.3 11.084l3.325 4.434c0 3.325-4.434 12.192-13.3 12.192h-4.434v7.758c-21.059 21.06-35.468 31.034-35.468 39.901h-6.65v-11.084l-18.842 9.976h-2.217v-9.976h-4.433c-5.542 0-6.65 4.434-6.65 8.867v3.325s9.975 3.326 13.3 6.65l-3.326 5.543c0 2.216 1.109 3.325 3.325 3.325-9.975 17.734-13.3 29.926-13.3 29.926h-6.65c-5.542 9.975-9.975 17.734-13.3 18.842V447.15s-5.542 3.325-12.192 12.192l-3.325-3.325s0-2.217-1.108-2.217h-5.542v1.108c0-2.217-1.109-3.325-3.325-4.433-4.434-5.542-8.867-12.192-9.976-18.842-3.325-3.325-5.541-7.759-7.758-11.084-2.217-5.542-5.542-12.192-6.65-18.842 0-1.109-1.109-2.217-1.109-3.325v-1.109c-1.108-2.217-1.108-3.325-1.108-5.542 47.66-38.793 76.478-59.852 87.56-88.67h-3.324c-49.877 47.66-74.261 67.611-74.261 73.153 0 6.65-1.109 11.084-11.084 11.084h-1.109v-1.108c0-1.109-1.108-2.217-1.108-3.325-5.542-4.434-9.975-9.976-12.192-16.626-1.108-1.109-2.217-2.217-3.325-2.217 3.325 1.108 8.867 3.325 15.517 8.867l7.758 3.325c7.759-6.65 12.192-14.409 14.41-23.276 19.95-18.842 33.25-31.034 44.334-35.468v-3.325l-17.734-3.325c0 3.325-3.325 9.975-24.384 16.626l3.326-7.759h-5.542c-11.084 9.976-18.842 18.842-21.06 18.842h-7.758c-1.108 3.325-3.325 4.434-7.758 4.434l-1.109-3.325h7.759v-18.842h-4.434c-4.433 0-6.65-3.325-6.65-7.759 8.867-15.517 17.734-23.276 28.818-23.276l-3.325-7.759c14.409-18.842 31.034-28.818 46.552-28.818 0-6.65 2.217-12.192 23.276-16.626v-3.325h-9.975v-6.65c9.975 0 15.517-3.325 21.059-12.192 6.65 0 21.059-9.975 45.443-18.842h3.325l3.325 5.542 6.65-3.325c14.409 0 36.576 6.65 47.66 18.842v3.325l-5.542 7.759c11.084 0 24.384 2.216 34.36 6.65v6.65l-15.517 3.325c19.951 13.3 36.576 18.842 47.66 18.842v3.325zm-230.54 48.768c0-4.434-3.325-7.759-7.759-7.759h-3.325v7.759h3.325v2.217h7.759zm2.216-16.626h-3.325v6.65h3.325zm21.06-13.3h-7.76v3.325h7.76zm17.733 13.3h-3.325c-3.325 0-7.758 3.325-9.975 9.975h7.758c4.434 0 6.65-2.217 6.65-5.542v-4.433zm21.06 0h-6.65c2.216 3.325 3.324 7.758 3.324 9.975h3.325zm9.975-25.493c2.216 0 3.325-3.325 3.325-3.325h-6.65s-4.434 7.758-13.3 13.3c4.433 0 6.65 3.325 6.65 11.084 3.325 0 8.867-5.542 13.3-16.626-2.217-1.109-3.325-2.217-3.325-4.434zm-42.118 106.4h7.758v-5.542c-4.433 0-7.758 1.108-7.758 5.542zm-6.65 16.626v-4.434l6.65 3.325h3.325v-3.325c0-3.325-2.217-5.541-7.759-5.541-4.433 2.216-7.759 3.325-9.975 3.325 2.216 3.325 4.433 6.65 7.758 6.65zm28.817 6.65h-11.084c-11.084 9.975-19.95 21.059-19.95 24.384v4.434h6.65c7.758-18.842 14.409-24.384 25.493-24.384zM647.8 315.25c4.434-2.217 8.867-3.325 9.976-3.325V308.6h-9.976zm-6.65-64.286c-2.217-3.325-4.433-7.759-4.433-9.975-21.06 7.758-31.034 12.192-31.034 15.517 0 4.433 0 6.65-9.976 6.65v9.975c11.084-7.758 26.601-14.409 45.443-22.167zm-17.734 79.803v6.65c5.542-4.433 9.975-6.65 13.3-6.65v-6.65c-4.433 4.433-9.975 6.65-13.3 6.65zm-42.118 54.31h-7.758v3.325h7.758zm7.759-8.867h-3.325c-4.434 0-6.65 3.325-6.65 5.542h9.975zm31.034-36.576h-6.65s-6.65 13.3-27.71 29.926v3.325c9.976 0 16.627-14.409 34.36-33.25zm-9.976 43.226h-7.758v3.325h7.758zm5.542 2.217h-3.325v6.65h3.325zm9.976-18.842c5.541-3.325 11.084-5.542 14.409-5.542l-3.326-6.65c-15.517 6.65-24.384 15.517-24.384 28.818l6.65-3.325h7.76zm33.25-7.759l-7.758-4.433-4.434 4.433zm11.085-28.818c-16.626 0-25.493 9.975-28.818 18.842h13.3c1.108-8.867 4.433-11.084 15.517-18.842zm31.034-6.65l3.325-3.325H701zm-17.734-4.434c-5.542 0-7.759 3.326-7.759 5.542h7.759zm13.3-94.212c-2.217 0-6.65-1.108-9.976-3.325l-7.758 9.976h9.975c5.542 0 7.759-2.217 7.759-6.65zm-134.11 254.93c2.216 5.542 4.433 11.084 8.867 16.626 1.108 2.217 2.216 4.434 3.325 5.542 5.541-9.975 7.758-16.626 7.758-18.842-2.216 0-6.65-1.108-9.975-3.325zm-210.59 164.04h6.65v-5.541h-6.65zm-91.995 57.635c0 4.434 2.216 6.65 7.758 6.65v-6.65zm13.3-26.6h7.758s-1.108-3.326 1.109-7.76c0-8.866-1.109-9.974-11.084-9.974 7.758-3.326 9.975-6.65 9.975-9.976v-5.542c-9.975 2.217-9.975 3.325-9.975 3.325v6.65l-1.109 4.434h-9.975v19.951c2.217 0 6.65-3.325 9.975-5.542 2.217 0 3.325 4.434 3.325 4.434zm17.734-37.686c7.758 0 9.975-5.541 21.059-5.541v-5.542s-13.3 0-28.818 3.325l4.433 7.758zm18.842 1.109v-3.325h-7.759v3.325zm-25.493 8.867v9.975h9.975c-2.217-5.542-3.325-8.867-3.325-9.975zm-16.626 67.61h6.65v-5.541h-6.65zm195.07-64.285v6.65h3.325c5.542 0 7.758-2.217 7.758-6.65v-9.975c-7.758 3.325-11.084 6.65-11.084 9.975zm-192.86 44.335v5.542h7.758v-12.192c-4.433 0-6.65 3.325-7.758 6.65zm185.1-28.818v6.65h7.758c0-3.325-2.217-6.65-7.758-6.65zm18.842-27.71v3.326c4.433 0 6.65-2.217 6.65-6.65v-3.325c-4.434 0-6.65 1.108-6.65 6.65zm-14.41 8.868h-3.325c-4.433 0-6.65 2.217-7.758 6.65h3.325c4.433 0 7.759-2.217 7.759-6.65zm-168.47 56.527h-7.758l-3.325 14.409v4.433h9.975v-18.842z"/><filter id="shadow_logomark"><feDropShadow dx="0" dy="0" stdDeviation="20" flood-color="var(--color-accent)" flood-opacity="var(--shadow-opacity)"/></filter></g></svg>