<svg id="xeho91-avatar" xmlns="http://www.w3.org/2000/svg" viewBox="0 0 1024 1024"><title>xeho91&apos;s avatar</title><desc>xeho91&apos;s avatar - a centered orange letter &quot;x&quot; in the purple
		background and orange frame.</desc><defs><symbol id="avatar_background"><circle id="background_frame" cx="512" cy="512" r="512" fill="hsla(27deg, 72%, 59%, 1)"/><circle id="background_inner" cx="512" cy="512" r="472" fill="hsla(297deg, 84%, 10%, 1)"/></symbol><symbol id="avatar_logomark" fill="hsla(27deg, 72%, 59%, 1)" filter="url(#logomark_shadow)"><filter id="logomark_shadow"><feDropShadow id="logomark_shadow-color" dx="0" dy="0" stdDeviation="20" flood-color="hsla(27deg, 72%, 59%, 1)" flood-opacity="0.75"/></filter><path id="x-forward" d="
					m 691.56 616.74 -3.3251 -13.3
					c -16.626 -5.5419 -25.493 -9.9753 -25.493 -17.734
					l -6.6502 3.3251
					c 0 -5.5418 -6.6502 -11.084 -17.734 -18.842 -18.842 0 -39.901 -22.167 -63.177 -66.502 -1.1084 -2.2167 -3.3251 -3.3251 -3.3251 -5.5418 -3.3251 -4.4335 -6.6502 -9.9753 -8.867 -15.517
					v -1.1084
					l -6.6502 -19.951
					s -1.1084 0 -1.1084 -1.1084
					l -4.4335 -4.4335
					s 0 -2.2168 -1.1084 -2.2168
					h -4.4335
					v 1.1084
					c 0 -2.2167 -1.1084 -3.3251 -3.3251 -4.4335 -4.4335 -5.5419 -8.867 -12.192 -9.9753 -18.842 -3.3251 -3.3251 -5.5419 -7.7586 -7.7586 -11.084 -2.2167 -5.5419 -5.5418 -12.192 -6.6502 -18.842 0 -1.1084 0 -2.2168 -1.1084 -2.2168 -1.1084 -2.2167 -2.2167 -3.3251 -2.2167 -4.4335
					h -1.1084
					v -3.3251
					c 0 -2.2167 -1.1084 -3.3251 -3.3251 -5.5419 -5.5418 -4.4335 -9.9753 -11.084 -13.3 -16.626 -1.1084 -1.1084 -2.2167 -2.2167 -3.3251 -2.2167
					h -1.1084
					s -2.2167 -1.1084 -2.2167 -2.2168
					c -1.1084 -1.1084 -1.1084 -2.2167 0 -3.3251 -1.1084 -1.1084 0 -2.2168 0 -3.3251
					v -1.1084
					c 0 -3.3251 -2.2168 -5.5419 -4.4335 -7.7586
					l -2.2168 -2.2168
					c -1.1084 0 -2.2167 -1.1084 -2.2167 -2.2167 -1.1084 -1.1084 -1.1084 -1.1084 -1.1084 -2.2168 -15.517 -22.167 -33.251 -38.793 -52.093 -46.552
					l -7.7586 3.3251 -2.2167 -11.084
					c -39.901 -11.084 -59.852 -19.951 -59.852 -25.493 -4.4335 0 -6.6502 2.2167 -6.6502 5.5419 -4.4335 0 -6.6502 -2.2167 -7.7586 -5.5419
					l -13.3 16.626
					c 3.3251 26.601 14.409 56.527 35.468 89.778
					v 3.3251
					l -4.4335 6.6502
					c 7.7586 0 9.9753 2.2167 9.9753 5.5419
					l -4.4335 6.6502
					c 5.5419 0 12.192 12.192 19.951 36.576 3.3251 3.3251 5.5419 7.7586 7.7586 9.9754 1.1084 3.3251 3.3251 6.6502 4.4335 9.9754 2.2168 0 2.2168 2.2167 2.2168 3.3251
					v 1.1084
					c 1.1084 5.5418 5.5418 12.192 8.867 17.734 1.1084 0 2.2167 -5.5419 3.3251 3.3251
					h 1.1084
					s 2.2167 8.867 6.6502 17.734
					v -1.1084
					h 1.1084
					c 2.2167 14.409 14.409 25.493 23.276 37.685 9.9753 11.084 18.842 23.276 29.926 33.251 0 0 1.1084 0 1.1084 1.1084
					v -2.2167
					c 1.1084 0 1.1084 -1.1084 1.1084 -1.1084
					h 3.3251
					l 6.6502 4.4335 1.1084 1.1084
					c 2.2168 1.1084 4.4335 3.3251 5.5419 3.3251
					h 9.9753
					s 0 5.5419 9.9754 5.5419
					v 4.4335
					l -5.5419 6.6502
					c 2.2167 0 3.3251 1.1084 3.3251 3.3251 2.2168 0 2.2168 -3.3251 2.2168 -3.3251 9.9753 0 18.842 4.4335 31.034 14.409
					h 3.3251
					l 6.6502 -1.1084
					c 0 5.5419 2.2168 11.084 7.7586 17.734 5.5418 0 9.9753 -3.3251 13.3 -4.4335 5.5419 0 7.7586 7.7586 7.7586 7.7586
					h 9.9754
					l -3.3251 -3.3251
					c 21.059 2.2168 43.226 8.867 66.502 19.951
					l 6.6502 -2.2167
					c 0 2.2167 1.1084 4.4335 3.3251 4.4335
					h 26.601
					v -8.867
					l -5.5419 -12.192
					z
				"/><path id="x-back" d="
					m 396.18 454.92
					v 8.867
					c 0 6.6502 -4.4335 11.084 -7.7586 11.084 -3.3251 14.409 -13.3 21.059 -13.3 21.059
					v 17.734
					h 3.3251
					c 16.626 -28.818 31.034 -42.118 34.36 -42.118 0 0 -8.867 -5.5418 -9.9754 -9.9753 -1.1084 -3.3251 -11.084 -22.167 -12.192 -24.384
					l -2.2168 -3.3251 -4.4335 13.3
					c 2.2168 3.3251 3.3251 9.9754 3.3251 11.084
					z
					m -13.3 -1.1084
					h -7.7586
					v 6.6502
					c 4.4335 0 7.7586 -3.3251 7.7586 -6.6502
					z
					m -35.468 67.611
					h 3.3251
					c 7.7586 -28.818 13.3 -35.468 24.384 -35.468
					v -2.2167
					s -4.4335 -2.2168 -9.9753 -5.5419
					c -9.9754 4.4335 -9.9754 9.9754 -9.9754 12.192
					v 5.5419
					l -1.1084 8.867 -2.2167 -1.1084 -2.2168 6.6502 -4.4335 -1.1084
					v 3.3251
					c -1.1084 4.4335 -2.2167 9.9754 2.2168 8.867
					z
					m 0 32.143
					h 3.3251
					v -6.6502
					h -3.3251
					z
					m -24.384 6.6502
					c 0 -6.6502 -2.2168 -9.9754 -7.7586 -9.9754
					h -3.3251
					v 3.3251
					l 3.3251 6.6502
					c -2.2168 0 -3.3251 1.1084 -3.3251 3.3251
					v 9.9754
					s 7.7586 -5.5419 11.084 -13.3
					z
					m -11.084 41.01
					h 6.6502
					v -3.3251
					h -6.6502
					z
					m 63.177 -41.01
					h -6.6502
					v 5.5419
					h 6.6502
					z
					m -6.6502 -45.443
					h -3.3251
					v 5.5419
					h 3.3251
					z
					m -32.143 3.3251
					h -7.7586
					v 9.9754
					h 7.7586
					z
					m -38.793 79.803
					h 4.4335
					v -3.3251
					c 0 -3.3251 -2.2168 -5.5419 -6.6502 -6.6502
					h -4.4335
					v 3.3251
					c 0 4.4335 2.2167 6.6502 6.6502 6.6502
					z
					m 191.75 -243.84
					v 2.2167
					c -1.1084 1.1084 -1.1084 2.2168 0 3.3251 -1.1084 1.1084 0 2.2168 0 3.3251
					s 2.2167 2.2167 2.2167 2.2167
					v -6.6502
					s 5.5418 -1.1084 9.9753 -3.3251
					c 0 -4.4335 -16.626 -8.867 -16.626 -7.7586 2.2168 1.1084 3.3251 3.3251 4.4335 6.6502
					z
					m 75.369 -113.05
					h -7.7586
					v 3.3251
					h 7.7586
					z
					m 152.96 70.936
					h 6.6502
					c 5.5419 0 7.7586 -2.2168 7.7586 -5.5419
					h -13.3
					v 5.5419
					z
					m -426.72 283.74
					h -3.3251
					v 5.5419
					h 3.3251
					z
					m 298.15 -139.65
					h -3.3251
					v 5.5419
					h 3.3251
					z
					m 13.3 -18.842
					v 3.3251
					c 5.5419 0 7.7586 -2.2167 7.7586 -5.5418
					v -3.3251
					c -4.4335 -1.1084 -6.6502 2.2167 -7.7586 5.5419
					z
					m -164.04 234.97 -4.4335 3.3251
					h 4.4335
					z
					m -4.4335 2.2167
					h -2.2167
					v 1.1084
					z
					m 213.92 -294.83
					c 0 3.3251 -2.2168 7.7586 -6.6502 12.192
					v 3.3251
					h 6.6502
					c 0 -6.6502 2.2167 -9.9753 7.7586 -9.9753 0 -3.3251 -2.2167 -5.5419 -7.7586 -5.5419
					z
					m -62.069 96.428
					v 3.3251
					c 9.9753 -2.2167 9.9753 -11.084 21.059 -28.818
					v -5.5419
					h -1.1084
					c -8.867 9.9754 -19.951 18.842 -19.951 31.034
					z
					m -91.995 93.103
					c 0 9.9754 -3.3251 13.3 -13.3 13.3
					v 9.9753
					c -9.9753 22.167 -18.842 35.468 -21.059 35.468
					h -9.9754
					l 5.5419 2.2167
					c 0 13.3 -7.7586 26.601 -21.059 36.576
					h -6.6502
					v -12.192
					s 0 3.3251 -9.9754 9.9754
					v 3.3251
					l 8.867 -3.3251
					c 4.4335 4.4335 6.6502 8.867 7.7586 12.192
					h -1.1084
					l 3.3251 18.842
					c -4.4335 0 -9.9754 9.9754 -13.3 28.818
					h 6.6502
					v 4.4335
					c 0 5.5419 -2.2167 9.9754 -7.7586 17.734 2.2167 3.3251 3.3251 6.6502 3.3251 6.6502
					h -9.9753
					l -11.084 7.7586 4.4335 5.5418
					c 0 3.3251 -1.1084 5.5419 -5.5419 5.5419
					l 5.5419 6.6502
					v 19.951
					h 3.3251
					l -4.4335 4.4335 3.3251 14.409
					h -3.3251
					l -6.6502 -2.2167
					c 0 4.4335 -3.3251 9.9753 -13.3 9.9753
					v 3.3251
					c -16.626 0 -31.034 -7.7586 -42.118 -21.059
					v -1.1084
					h 2.2168
					c -1.1084 0 -1.1084 -3.3251 -2.2168 -3.3251
					v 3.3251
					s -9.9754 -5.5418 -21.059 -16.626
					v 3.3251
					l 3.3251 3.3251
					h -7.7586
					c -3.3251 0 -7.7586 -3.3251 -12.192 -11.084 2.2167 0 4.4335 0 4.4335 -2.2168 -3.3251 0 -9.9753 -3.3251 -9.9753 -9.9753
					v -1.1084
					c 0 -2.2167 -1.1084 -3.3251 2.2167 -3.3251 -5.5419 -17.734 -9.9753 -25.493 -12.192 -25.493 4.4335 -31.034 9.9754 -47.66 13.3 -52.093
					l -3.3251 -15.517
					c 4.4335 0 7.7586 -2.2167 9.9753 -5.5418 -2.2167 -4.4335 -4.4335 -7.7586 -4.4335 -9.9753 2.2167 -6.6502 4.4335 -9.9754 6.6502 -9.9754
					l -2.2168 -6.6502
					v -3.3251
					c 9.9754 0 29.926 -23.276 48.768 -70.936
					h 4.4335
					c 5.5418 0 7.7586 9.9754 7.7586 9.9754
					h 3.3251
					s 4.4335 -9.9754 13.3 -18.842
					h -6.6502
					c 0 -9.9754 4.4335 -8.867 8.867 -8.867 0 2.2167 -5.5419 2.2167 5.5418 2.2167
					v -3.3251
					c -9.9753 -3.3251 -4.4335 -7.7586 -4.4335 -9.9753
					l -6.6502 3.3251
					v -3.3251
					c 0 -3.3251 2.2167 -6.6502 9.9754 -9.9754 0 6.6502 2.2167 9.9754 9.9753 9.9754 0 7.7586 -8.867 15.517 -8.867 25.493
					v 3.3251
					l 5.5419 9.9754
					c -15.517 0 -31.034 17.734 -44.335 50.985
					l 7.7586 3.3251
					c 0 -3.3251 4.4335 -12.192 13.3 -23.276 0 -13.3 3.3251 -21.059 9.9753 -21.059
					h 7.7586
					v 3.3251
					c 1.1084 -5.5419 3.3251 -9.9753 9.9754 -15.517
					v -9.9754
					c 9.9753 0 9.9753 -6.6502 13.3 -24.384 9.9754 0 13.3 -11.084 13.3 -21.059
					h -6.6502
					s -2.2168 9.9754 -7.7586 9.9754
					h -3.3251
					c -5.5418 0 -7.7586 -3.3251 -7.7586 -8.867
					l -13.3 4.4335
					v -6.6502
					c 0 -1.1084 8.867 -11.084 24.384 -31.034
					v 1.1084
					c 2.2167 14.409 14.409 25.493 23.276 37.685 9.9754 11.084 18.842 23.276 29.926 33.251
					h 1.1084
					v -1.1084
					l 1.1084 -1.1084
					c 0 9.9753 -7.7586 18.842 -21.059 38.793
					h 7.7586
					c 11.084 0 16.626 -9.9753 16.626 -18.842
					h 2.2167
					v -6.6502
					l 5.5419 -6.6502 -6.6502 -4.4335 6.6502 3.3251
					h 1.1084
					c 2.2167 3.3251 4.4335 3.3251 6.6502 4.4335
					z
					m -133 26.601
					h 4.4335
					c 5.5418 0 7.7586 -2.2167 7.7586 -6.6502
					h -9.9754
					z
					m -16.626 31.034
					h 7.7586
					s 3.3251 -9.9753 3.3251 -15.517
					v -3.3251
					c 0 -4.4335 0 -6.6502 -5.5419 -6.6502 0 7.7586 -5.5419 14.409 -5.5419 18.842
					z
					m -21.059 43.226
					c 9.9754 -2.2167 13.3 -8.867 13.3 -18.842 -4.4335 0 -3.3251 3.3251 -13.3 12.192
					z
					m -3.3251 8.867
					h 7.7586
					v -3.3251
					h -7.7586
					z
					m -9.9754 13.3
					h 3.3251
					v -6.6502
					h -3.3251
					z
					m 5.5419 89.778
					h -3.3251
					v 6.6502
					h 3.3251
					z
					m 0 -16.626
					h -3.3251
					v 6.6502
					h 3.3251
					z
					m 0 -22.167 -5.5419 -3.3251
					h -4.4335
					v 5.5419
					c 5.5419 0 7.7586 2.2167 7.7586 6.6502
					h 3.3251
					v -8.867
					z
					m 11.084 -48.768
					v -12.192
					h -7.7586
					l -3.3251 12.192 7.7586 -3.3251
					c 0 3.3251 1.1084 3.3251 3.3251 3.3251
					z
					m 3.3251 48.768
					h -3.3251
					v 6.6502
					h 3.3251
					z
					m 0 -42.118
					h 4.4335
					v -5.5419
					h -3.3251
					z
					m 11.084 74.261
					h 3.3251
					v -9.9754
					h -3.3251
					z
					m 0 -12.192
					v -3.3251
					c -2.2167 -3.3251 -3.3251 -7.7586 -3.3251 -9.9753
					h -4.4335
					v 3.3251
					c 2.2167 3.3251 3.3251 7.7586 3.3251 9.9753
					z
					m 0 -35.468
					h -3.3251
					v 6.6502
					h 3.3251
					z
					m -7.7586 15.517
					h 7.7586
					v -5.5419
					c -5.5419 0 -7.7586 2.2168 -7.7586 5.5419
					z
					m 11.084 62.069 -3.3251 -5.5418
					h -7.7586
					z
					m 3.3251 -117.49
					h -3.3251
					l -3.3251 12.192
					h 6.6502
					z
					m 17.734 -49.877 -13.3 -3.3251
					c -11.084 33.251 -17.734 53.202 -17.734 58.744 3.3251 0 9.9753 -9.9754 17.734 -32.143 -2.2168 0 -3.3251 -1.1084 -3.3251 -3.3251 2.2168 -1.1084 6.6502 -7.7586 16.626 -19.951
					z
					m 21.059 -29.926
					h -3.3251
					v 6.6502
					h 3.3251
					z
					m 55.419 -47.66
					h 6.6502
					v -6.6502
					c -4.4335 0 -6.6502 2.2167 -6.6502 6.6502
					z
					m -9.9754 -9.9754
					h 7.7586
					v -3.3251
					h -6.6502
					z
					m -21.059 28.818
					h 7.7586
					v -5.5419
					h -7.7586
					z
					m -14.409 25.493
					h -3.3251
					v 6.6502
					h 3.3251
					z
					m 21.059 119.7
					h -3.3251
					v 5.5419
					h 3.3251
					z
					m 13.3 -149.63 -6.6502 -4.4335
					h -6.6502
					v 9.9753
					h 9.9754
					c 0 3.3251 -6.6502 6.6502 -17.734 9.9753
					l 3.3251 6.6502
					c -1.1084 14.409 -6.6502 22.167 -16.626 22.167
					v 6.6502
					s 6.6502 3.3251 6.6502 12.192
					h 4.4335
					c 0 -9.9753 2.2167 -14.409 7.7586 -31.034
					l 6.6502 2.2168
					c 0 -2.2168 0 -3.3251 3.3251 -3.3251
					l -6.6502 -5.5419
					v -5.5419
					c 9.9753 1.1084 12.192 -7.7586 12.192 -19.951
					z
					m 3.3251 -1.1084
					h 4.4335
					c 5.5419 0 7.7586 -2.2168 7.7586 -6.6502
					l -13.3 -3.3251
					c 0 4.4335 1.1084 6.6502 1.1084 9.9754
					z
					m 7.7586 66.502
					h -7.7586
					v 5.5419
					c 5.5419 1.1084 7.7586 -1.1084 7.7586 -5.5419
					z
					m 12.192 -27.709
					c -7.7586 0 -12.192 4.4335 -15.517 24.384
					h 3.3251
					c 4.4335 0 6.6502 -3.3251 6.6502 -9.9754
					h 1.1084
					v -5.5419
					c 9.9754 -4.4335 4.4335 -5.5419 4.4335 -8.867
					z
					m 141.87 -162.93
					v -3.3251
					h -7.7586
					v 9.9753
					c 5.5419 0 7.7586 -1.1084 7.7586 -6.6502
					z
					m -66.502 -111.95
					v -3.3251
					h -3.3251
					c -4.4335 0 -6.6502 2.2168 -6.6502 5.5419
					v 3.3251
					h 3.3251
					c 4.4335 0 6.6502 -1.1084 6.6502 -5.5418
					z
					m 213.92 -67.611
					v 3.3251
					h 19.951
					c 0 9.9753 -7.7586 8.867 -24.384 11.084
					l 4.4335 8.867
					v 3.3251
					c -21.059 1.1084 -29.926 4.4335 -29.926 9.9754
					l -8.867 -3.3251
					c -8.867 3.3251 -14.409 5.5419 -14.409 8.867
					h 6.6502
					l 14.409 -5.5419
					v 3.3251
					l -4.4335 2.2168
					h 4.4335
					v 9.9753
					l -9.9754 3.3251
					c -7.7586 9.9754 -13.3 17.734 -13.3 23.276
					l -7.7586 -3.3251
					c 1.1084 -8.867 9.9753 -12.192 9.9753 -12.192
					v -1.1084
					h -3.3251
					s -4.4335 6.6502 -13.3 11.084
					l 3.3251 4.4335
					c 0 3.3251 -4.4335 12.192 -13.3 12.192
					h -4.4335
					v 7.7586
					c -21.059 21.059 -35.468 31.034 -35.468 39.901
					h -6.6502
					v -11.084
					l -18.842 9.9754
					h -2.2168
					v -9.9754
					h -4.4335
					c -5.5418 0 -6.6502 4.4335 -6.6502 8.867
					v 3.3251
					s 9.9754 3.3251 13.3 6.6502
					l -3.3251 5.5419
					c 0 2.2167 1.1084 3.3251 3.3251 3.3251 -9.9754 17.734 -13.3 29.926 -13.3 29.926
					h -6.6502
					c -5.5418 9.9754 -9.9753 17.734 -13.3 18.842
					v -25.493
					s -5.5418 3.3251 -12.192 12.192
					l -3.3251 -3.3251
					s 0 -2.2168 -1.1084 -2.2168
					h -5.5419
					v 1.1084
					c 0 -2.2167 -1.1084 -3.3251 -3.3251 -4.4335 -4.4335 -5.5419 -8.867 -12.192 -9.9753 -18.842 -3.3251 -3.3251 -5.5419 -7.7586 -7.7586 -11.084 -2.2168 -5.5419 -5.5419 -12.192 -6.6502 -18.842 0 -1.1084 -1.1084 -2.2168 -1.1084 -3.3251
					v -1.1084
					c -1.1084 -2.2168 -1.1084 -3.3251 -1.1084 -5.5419 47.66 -38.793 76.478 -59.852 87.561 -88.67
					h -3.3251
					c -49.877 47.66 -74.261 67.611 -74.261 73.153 0 6.6502 -1.1084 11.084 -11.084 11.084
					h -1.1084
					v -1.1084
					c 0 -1.1084 -1.1084 -2.2167 -1.1084 -3.3251 -5.5419 -4.4335 -9.9754 -9.9754 -12.192 -16.626 -1.1084 -1.1084 -2.2167 -2.2168 -3.3251 -2.2168 3.3251 1.1084 8.867 3.3251 15.517 8.867
					l 7.7586 3.3251
					c 7.7586 -6.6502 12.192 -14.409 14.409 -23.276 19.951 -18.842 33.251 -31.034 44.335 -35.468
					v -3.3251
					l -17.734 -3.3251
					c 0 3.3251 -3.3251 9.9754 -24.384 16.626
					l 3.3251 -7.7586
					h -5.5418
					c -11.084 9.9754 -18.842 18.842 -21.059 18.842
					h -7.7586
					c -1.1084 3.3251 -3.3251 4.4335 -7.7586 4.4335
					l -1.1084 -3.3251
					h 7.7586
					v -18.842
					h -4.4335
					c -4.4335 0 -6.6502 -3.3251 -6.6502 -7.7586 8.867 -15.517 17.734 -23.276 28.818 -23.276
					l -3.3251 -7.7586
					c 14.409 -18.842 31.034 -28.818 46.552 -28.818 0 -6.6502 2.2167 -12.192 23.276 -16.626
					v -3.3251
					h -9.9753
					v -6.6502
					c 9.9753 0 15.517 -3.3251 21.059 -12.192 6.6502 0 21.059 -9.9753 45.443 -18.842
					h 3.3251
					l 3.3251 5.5419 6.6502 -3.3251
					c 14.409 0 36.576 6.6502 47.66 18.842
					v 3.3251
					l -5.5419 7.7586
					c 11.084 0 24.384 2.2167 34.36 6.6502
					v 6.6502
					l -15.517 3.3251
					c 19.951 13.3 36.576 18.842 47.66 18.842
					v 3.3251
					z
					m -230.54 48.768
					c 0 -4.4335 -3.3251 -7.7586 -7.7586 -7.7586
					h -3.3251
					v 7.7586
					h 3.3251
					v 2.2168
					h 7.7586
					z
					m 2.2167 -16.626
					h -3.3251
					v 6.6502
					h 3.3251
					z
					m 21.059 -13.3
					h -7.7586
					v 3.3251
					h 7.7586
					z
					m 17.734 13.3
					h -3.3251
					c -3.3251 0 -7.7586 3.3251 -9.9754 9.9754
					h 7.7586
					c 4.4335 0 6.6502 -2.2168 6.6502 -5.5419
					v -4.4335
					z
					m 21.059 0
					h -6.6502
					c 2.2167 3.3251 3.3251 7.7586 3.3251 9.9754
					h 3.3251
					z
					m 9.9753 -25.493
					c 2.2167 0 3.3251 -3.3251 3.3251 -3.3251
					h -6.6502
					s -4.4335 7.7586 -13.3 13.3
					c 4.4335 0 6.6502 3.3251 6.6502 11.084 3.3251 0 8.867 -5.5418 13.3 -16.626 -2.2167 -1.1084 -3.3251 -2.2168 -3.3251 -4.4335
					z
					m -42.118 106.4
					h 7.7586
					v -5.5419
					c -4.4335 0 -7.7586 1.1084 -7.7586 5.5419
					z
					m -6.6502 16.626
					v -4.4335
					l 6.6502 3.3251
					h 3.3251
					v -3.3251
					c 0 -3.3251 -2.2167 -5.5418 -7.7586 -5.5418 -4.4335 2.2167 -7.7586 3.3251 -9.9754 3.3251 2.2168 3.3251 4.4335 6.6502 7.7586 6.6502
					z
					m 28.818 6.6502
					h -11.084
					c -11.084 9.9753 -19.951 21.059 -19.951 24.384
					v 4.4335
					h 6.6502
					c 7.7586 -18.842 14.409 -24.384 25.493 -24.384
					z
					m 83.128 -90.886
					c 4.4335 -2.2167 8.867 -3.3251 9.9754 -3.3251
					v -3.3251
					h -9.9754
					z
					m -6.6502 -64.286
					c -2.2167 -3.3251 -4.4335 -7.7586 -4.4335 -9.9753 -21.059 7.7586 -31.034 12.192 -31.034 15.517 0 4.4335 0 6.6502 -9.9753 6.6502
					v 9.9754
					c 11.084 -7.7586 26.601 -14.409 45.443 -22.167
					z
					m -17.734 79.803
					v 6.6502
					c 5.5419 -4.4335 9.9753 -6.6502 13.3 -6.6502
					v -6.6502
					c -4.4335 4.4335 -9.9753 6.6502 -13.3 6.6502
					z
					m -42.118 54.31
					h -7.7586
					v 3.3251
					h 7.7586
					z
					m 7.7586 -8.867
					h -3.3251
					c -4.4335 0 -6.6502 3.3251 -6.6502 5.5418
					h 9.9754
					z
					m 31.034 -36.576
					h -6.6502
					s -6.6502 13.3 -27.709 29.926
					v 3.3251
					c 9.9753 0 16.626 -14.409 34.36 -33.251
					z
					m -9.9754 43.226
					h -7.7586
					v 3.3251
					h 7.7586
					z
					m 5.5419 2.2167
					h -3.3251
					v 6.6502
					h 3.3251
					z
					m 9.9753 -18.842
					c 5.5419 -3.3251 11.084 -5.5419 14.409 -5.5419
					l -3.3251 -6.6502
					c -15.517 6.6502 -24.384 15.517 -24.384 28.818
					l 6.6502 -3.3251
					h 7.7586
					z
					m 33.251 -7.7586 -7.7586 -4.4335 -4.4335 4.4335
					z
					m 11.084 -28.818
					c -16.626 0 -25.493 9.9753 -28.818 18.842
					h 13.3
					c 1.1084 -8.867 4.4335 -11.084 15.517 -18.842
					z
					m 31.034 -6.6502 3.3251 -3.3251
					h -3.3251
					z
					m -17.734 -4.4335
					c -5.5419 0 -7.7586 3.3251 -7.7586 5.5419
					h 7.7586
					z
					m 13.3 -94.212
					c -2.2167 0 -6.6502 -1.1084 -9.9753 -3.3251
					l -7.7586 9.9753
					h 9.9754
					c 5.5419 0 7.7586 -2.2168 7.7586 -6.6502
					z
					m -134.11 254.93
					c 2.2167 5.5419 4.4335 11.084 8.867 16.626 1.1084 2.2168 2.2167 4.4335 3.3251 5.5419 5.5418 -9.9753 7.7586 -16.626 7.7586 -18.842 -2.2167 0 -6.6502 -1.1084 -9.9753 -3.3251
					z
					m -210.59 164.04
					h 6.6502
					v -5.5418
					h -6.6502
					z
					m -91.995 57.635
					c 0 4.4335 2.2168 6.6502 7.7586 6.6502
					v -6.6502
					z
					m 13.3 -26.601
					h 7.7586
					s -1.1084 -3.3251 1.1084 -7.7586
					c 0 -8.867 -1.1084 -9.9753 -11.084 -9.9753 7.7586 -3.3251 9.9753 -6.6502 9.9753 -9.9753
					v -5.5419
					c -9.9753 2.2167 -9.9753 3.3251 -9.9753 3.3251
					v 6.6502
					l -1.1084 4.4335
					h -9.9753
					v 19.951
					c 2.2168 0 6.6502 -3.3251 9.9753 -5.5418 2.2167 0 3.3251 4.4335 3.3251 4.4335
					z
					m 17.734 -37.685
					c 7.7586 0 9.9753 -5.5419 21.059 -5.5419
					v -5.5419
					s -13.3 0 -28.818 3.3251
					l 4.4335 7.7586
					z
					m 18.842 1.1084
					v -3.3251
					h -7.7586
					v 3.3251
					z
					m -25.493 8.867
					v 9.9753
					h 9.9753
					c -2.2167 -5.5418 -3.3251 -8.867 -3.3251 -9.9753
					z
					m -16.626 67.611
					h 6.6502
					v -5.5419
					h -6.6502
					z
					m 195.07 -64.286
					v 6.6502
					h 3.3251
					c 5.5419 0 7.7586 -2.2167 7.7586 -6.6502
					v -9.9753
					c -7.7586 3.3251 -11.084 6.6502 -11.084 9.9753
					z
					m -192.86 44.335
					v 5.5419
					h 7.7586
					v -12.192
					c -4.4335 0 -6.6502 3.3251 -7.7586 6.6502
					z
					m 185.1 -28.818
					v 6.6502
					h 7.7586
					c 0 -3.3251 -2.2168 -6.6502 -7.7586 -6.6502
					z
					m 18.842 -27.709
					v 3.3251
					c 4.4335 0 6.6502 -2.2167 6.6502 -6.6502
					v -3.3251
					c -4.4335 0 -6.6502 1.1084 -6.6502 6.6502
					z
					m -14.409 8.867
					h -3.3251
					c -4.4335 0 -6.6502 2.2167 -7.7586 6.6502
					h 3.3251
					c 4.4335 0 7.7586 -2.2167 7.7586 -6.6502
					z
					m -168.47 56.527
					h -7.7586
					l -3.3251 14.409
					v 4.4335
					h 9.9753
					v -18.842
					z
				"/></symbol></defs><use href="#avatar_background"/><use href="#avatar_logomark"/></svg>